<svg fill="#1ABC9C" xmlns="http://www.w3.org/2000/svg"  viewBox="0 0 50 50" width="50px" height="50px"><path d="M 14 5 C 9.029 5 5 9.029 5 14 L 5 36 C 5 40.971 9.029 45 14 45 L 36 45 C 40.971 45 45 40.971 45 36 L 45 14 C 45 9.029 40.971 5 36 5 L 14 5 z M 17.363281 10 L 32.636719 10 C 36.696719 10 40 13.302281 40 17.363281 L 40 32.636719 C 40 36.697719 36.697719 40 32.636719 40 L 17.363281 40 C 13.302281 40 10 36.697719 10 32.636719 L 10 17.363281 C 10 13.302281 13.302281 10 17.363281 10 z M 17.363281 13 C 14.953281 13 13 14.953281 13 17.363281 L 13 32.636719 C 13 35.045719 14.953281 37 17.363281 37 L 32.636719 37 C 35.045719 37 37 35.046719 37 32.636719 L 37 17.363281 C 37 14.953281 35.046719 13 32.636719 13 L 17.363281 13 z"/></svg>