<?xml version="1.0" standalone="no"?>
<!DOCTYPE svg PUBLIC "-//W3C//DTD SVG 20010904//EN"
 "http://www.w3.org/TR/2001/REC-SVG-20010904/DTD/svg10.dtd">
<svg version="1.0" xmlns="http://www.w3.org/2000/svg"
 width="100.000000pt" height="100.000000pt" viewBox="17.000000 17.000000 60.000000 60.000000"
 preserveAspectRatio="xMidYMid meet">

<g transform="translate(0.000000,100.000000) scale(0.100000,-0.100000)"
fill="#8b00ff" stroke="none">
<path d="M435 776 c-68 -30 -111 -111 -96 -178 5 -18 18 -53 31 -78 27 -53
118 -180 130 -180 12 0 103 127 130 180 32 62 40 105 28 148 -25 94 -135 147
-223 108z m121 -90 c58 -49 20 -146 -56 -146 -16 0 -41 11 -56 24 -58 49 -20
146 56 146 16 0 41 -11 56 -24z"/>
</g>
</svg>
