<?xml version="1.0" standalone="no"?>
<!DOCTYPE svg PUBLIC "-//W3C//DTD SVG 20010904//EN"
 "http://www.w3.org/TR/2001/REC-SVG-20010904/DTD/svg10.dtd">
<svg version="1.0" xmlns="http://www.w3.org/2000/svg"
 width="100.000000pt" height="100.000000pt" viewBox="0 0 100.000000 100.000000"
 preserveAspectRatio="xMidYMid meet">

<g transform="translate(0.000000,100.000000) scale(0.100000,-0.100000)"
fill="#00ff00" stroke="none">
<path d="M307 702 c-103 -103 -187 -194 -187 -203 0 -22 30 -46 60 -51 l25 -3
5 -165 5 -165 285 0 285 0 3 168 2 167 29 0 c29 0 61 26 61 51 0 8 -20 35 -45
59 l-44 44 -3 110 -3 111 -60 0 -60 0 -5 -43 -5 -43 -75 76 c-41 41 -77 75
-80 75 -3 0 -90 -84 -193 -188z m284 42 c50 -49 92 -84 98 -80 6 4 11 32 11
62 0 51 1 54 25 54 25 0 25 0 25 -97 l0 -97 42 -43 c43 -44 42 -49 -12 -55
l-25 -3 -3 -167 -2 -168 -250 0 -250 0 -2 168 -3 167 -25 3 c-58 7 -55 12 110
177 91 91 167 165 170 165 2 0 44 -39 91 -86z"/>
</g>
</svg>
