<?xml version="1.0" standalone="no"?>
<!DOCTYPE svg PUBLIC "-//W3C//DTD SVG 20010904//EN"
 "http://www.w3.org/TR/2001/REC-SVG-20010904/DTD/svg10.dtd">
<svg version="1.0" xmlns="http://www.w3.org/2000/svg"
 width="100.000000pt" height="100.000000pt" viewBox="0 0 100.000000 100.000000"
 preserveAspectRatio="xMidYMid meet">

<g transform="translate(0.000000,100.000000) scale(0.100000,-0.100000)"
fill="#FFC0CB" stroke="none">
<path d="M30 776 c0 -118 4 -196 10 -198 5 -1 66 -1 134 2 l124 5 102 93 101
94 103 -95 103 -96 119 -1 c65 -1 125 -1 132 -1 9 1 12 47 12 196 l0 195 -470
0 -470 0 0 -194z m930 -1 l0 -185 -127 0 -128 0 -102 102 -103 103 -103 -103
-102 -102 -128 0 -127 0 0 185 0 185 460 0 460 0 0 -185z"/>
<path d="M152 363 l-2 -113 75 0 75 0 -2 113 -2 112 -3 -107 -4 -108 -64 0
-64 0 -4 108 -3 107 -2 -112z"/>
<path d="M702 363 l-2 -113 75 0 75 0 -2 113 -2 112 -3 -107 -4 -108 -64 0
-64 0 -4 108 -3 107 -2 -112z"/>
</g>
</svg>
