<?xml version="1.0" standalone="no"?>
<!DOCTYPE svg PUBLIC "-//W3C//DTD SVG 20010904//EN"
 "http://www.w3.org/TR/2001/REC-SVG-20010904/DTD/svg10.dtd">
<svg version="1.0" xmlns="http://www.w3.org/2000/svg"
 width="100.000000pt" height="100.000000pt" viewBox="0 0 100.000000 100.000000"
 preserveAspectRatio="xMidYMid meet">

<g transform="translate(0.000000,100.000000) scale(0.100000,-0.100000)"
fill="#ffff00" stroke="none">
<path d="M387 844 c-4 -4 -7 -13 -7 -21 0 -10 27 -13 121 -13 109 0 120 2 117
18 -3 15 -18 17 -114 20 -60 1 -113 -1 -117 -4z"/>
<path d="M245 751 c-33 -14 -52 -41 -99 -144 -44 -94 -46 -97 -78 -97 -42 0
-63 -13 -55 -34 6 -14 56 -16 487 -16 431 0 481 2 487 16 8 21 -13 34 -55 34
-32 0 -34 3 -81 103 -26 56 -58 111 -71 122 -21 19 -38 20 -269 22 -135 1
-255 -2 -266 -6z m516 -57 c7 -9 30 -53 50 -98 l37 -81 -174 -3 c-96 -1 -252
-1 -348 0 l-174 3 37 81 c20 45 43 89 50 98 12 14 46 16 261 16 215 0 249 -2
261 -16z"/>
<path d="M17 394 c-4 -4 -7 -59 -7 -121 0 -109 1 -115 25 -137 20 -19 25 -33
25 -75 l0 -51 94 0 c104 0 106 1 106 71 l0 39 240 0 240 0 0 -39 c0 -70 2 -71
106 -71 l94 0 0 51 c0 42 5 56 25 75 25 23 26 27 23 141 l-3 118 -115 0 -115
0 -3 -57 c-4 -82 14 -98 113 -98 l75 0 0 -33 0 -34 -432 -6 c-308 -5 -435 -3
-445 4 -7 6 -13 24 -13 40 l0 29 75 0 c68 0 79 3 101 25 21 22 25 33 22 78
l-3 52 -111 3 c-60 1 -113 -1 -117 -4z m193 -58 c0 -40 -11 -46 -86 -46 l-74
0 0 30 0 30 80 0 c62 0 80 -3 80 -14z m740 -16 l0 -30 -74 0 c-58 0 -75 3 -80
16 -15 40 -9 44 74 44 l80 0 0 -30z"/>
</g>
</svg>
